<svg width="4930" height="787" viewBox="0 0 4930 787" fill="none" xmlns="http://www.w3.org/2000/svg">
<path d="M111.249 687.352C37.0829 621.032 0 523.005 0 393.522C0 264.04 37.803 166.012 113.529 99.692C189.135 33.3717 292.584 0.148437 423.754 0.148437C478.239 0.148437 526.363 4.0645 568.246 12.1493C610.129 20.1077 650.213 33.6243 688.496 52.8256V262.903C628.971 233.217 561.406 218.31 485.799 218.31C419.194 218.31 369.99 231.574 338.308 258.103C306.505 284.631 290.664 329.728 290.664 393.522C290.664 455.168 306.265 499.761 337.587 527.3C368.79 554.965 418.234 568.734 485.919 568.734C557.565 568.734 625.611 551.175 690.176 516.183V735.987C618.53 769.968 529.243 786.896 422.314 786.896C288.984 786.896 185.415 753.673 111.249 687.352Z" fill="black"/>
<path d="M754.754 393.374C754.754 264.902 789.557 167.253 859.162 100.301C928.768 33.3496 1033.66 0 1173.95 0C1315.2 0 1420.81 33.4759 1491.01 100.301C1561.1 167.127 1596.14 264.902 1596.14 393.374C1596.14 655.623 1455.37 786.747 1173.95 786.747C894.445 786.874 754.754 655.749 754.754 393.374ZM1274.64 527.277C1295.28 499.612 1305.6 455.02 1305.6 393.5C1305.6 332.991 1295.28 288.651 1274.64 260.481C1253.99 232.31 1220.39 218.288 1173.95 218.288C1128.58 218.288 1095.7 232.437 1075.54 260.481C1055.38 288.651 1045.3 332.991 1045.3 393.5C1045.3 455.146 1055.38 499.739 1075.54 527.277C1095.7 554.942 1128.46 568.712 1173.95 568.712C1220.39 568.712 1253.87 554.816 1274.64 527.277Z" fill="black"/>
<path d="M1662.37 15.9168L1928.67 15.9168L1936.23 73.2681C1965.51 52.0456 2002.83 34.4865 2048.2 20.7172C2093.56 6.94783 2140.49 0 2188.97 0C2278.74 0 2344.26 23.37 2385.67 70.11C2427.07 116.85 2447.71 188.981 2447.71 286.756V770.957H2163.29V316.948C2163.29 282.966 2155.97 258.586 2141.33 243.679C2126.68 228.773 2102.2 221.446 2067.88 221.446C2046.76 221.446 2025.04 226.499 2002.83 236.605C1980.63 246.711 1962.03 259.723 1946.79 275.639V770.957H1662.37L1662.37 15.9168Z" fill="black"/>
<path d="M2448.54 15.8945L2745.08 15.8945L2881.29 458.661L3017.5 15.8945L3314.04 15.8945L3031.06 770.934L2731.4 770.934L2448.54 15.8945Z" fill="black"/>
<path d="M3403.61 706.026C3318.16 638.569 3278.2 521.466 3278.2 395.016C3278.2 271.85 3310 170.411 3382.6 100.301C3455.21 30.1915 3565.86 0 3705.55 0C3834.08 0 3935.13 31.3284 4008.93 93.9852C4082.62 156.642 4119.58 242.164 4119.58 350.423V482.685L3578.7 482.685C3592.14 521.972 3609.18 550.395 3651.07 567.954C3692.95 585.513 3751.39 594.229 3826.16 594.229C3870.8 594.229 3916.41 590.566 3962.73 583.113C3979.05 580.46 4005.93 576.291 4020.1 573.133V756.682C3949.41 776.894 3855.2 787 3748.99 787C3606.06 786.874 3489.05 773.483 3403.61 706.026ZM3820.76 320.232C3820.76 282.84 3779.84 202.371 3697.63 202.371C3623.46 202.371 3574.5 281.577 3574.5 320.232L3820.76 320.232Z" fill="black"/>
<path d="M4342.86 387.035L4076.56 15.8945L4385.22 15.8945L4929.95 770.934H4618.28L4497.19 602.039L4376.1 770.934H4065.88L4342.86 387.035Z" fill="black"/>
<path d="M4611.45 15.8945L4918.67 15.8945L4682.86 346.485L4526.84 134.639L4611.45 15.8945Z" fill="black"/>
</svg>
