<svg width="966" height="966" viewBox="0 0 966 966" fill="none" xmlns="http://www.w3.org/2000/svg">
<rect width="966" height="966" rx="193.2" fill="#D75125"/>
<rect width="966" height="966" rx="193.2" fill="url(#paint0_linear_2274_208972)" fill-opacity="0.3"/>
<rect width="966" height="966" rx="193.2" stroke="#C2C2C2"/>
<path d="M744.962 268.702L539.832 150.401C505.193 130.423 462.151 130.424 427.51 150.401L222.381 268.702C187.673 288.717 166.113 326.043 166.113 366.112V602.532C166.113 642.601 187.673 679.927 222.38 699.942L427.51 818.243C462.156 838.225 505.197 838.218 539.832 818.243L744.961 699.942C779.669 679.927 801.229 642.601 801.229 602.532V366.112C801.229 326.044 779.669 288.718 744.962 268.702ZM746.712 602.532C746.712 623.172 735.607 642.398 717.729 652.707L512.599 771.009C494.754 781.302 472.586 781.302 454.742 771.009L249.612 652.707C231.735 642.397 220.63 623.172 220.63 602.532V366.112C220.63 345.474 231.735 326.247 249.613 315.938L454.742 197.636C472.588 187.344 494.762 187.348 512.6 197.636L717.73 315.937C735.607 326.247 746.712 345.472 746.712 366.112V602.532Z" fill="white"/>
<path d="M457.769 463.511L356.531 377.834C345.04 368.109 327.839 369.541 318.114 381.036C308.39 392.531 309.824 409.732 321.316 419.458L397.963 484.324L321.316 549.189C309.824 558.915 308.391 576.116 318.114 587.611C327.862 599.13 345.067 600.513 356.531 590.811L457.769 505.134C470.648 494.235 470.611 474.38 457.769 463.511Z" fill="white"/>
<path d="M628.417 542.73H505.762C490.707 542.73 478.504 554.935 478.504 569.993C478.504 585.05 490.707 597.255 505.762 597.255H628.417C643.47 597.255 655.675 585.05 655.675 569.993C655.675 554.935 643.472 542.73 628.417 542.73Z" fill="white"/>
<defs>
<linearGradient id="paint0_linear_2274_208972" x1="720.276" y1="174.454" x2="160.781" y2="867.162" gradientUnits="userSpaceOnUse">
<stop stop-color="white"/>
<stop offset="1" stop-color="white" stop-opacity="0"/>
</linearGradient>
</defs>
</svg>
